<svg width="26" height="26" viewBox="0 0 26 26" fill="none" xmlns="http://www.w3.org/2000/svg">
<path d="M13.3535 0C6.22754 0 2.43787 4.56646 2.43787 9.54568C2.43787 11.8549 3.72817 14.7345 5.79364 15.6478C6.10728 15.7892 6.27791 15.7291 6.34779 15.4382C6.40954 15.2172 6.68093 14.1528 6.81256 13.6506C6.85319 13.4897 6.83206 13.35 6.70206 13.1988C6.01628 12.4058 5.47188 10.9611 5.47188 9.60581C5.47188 6.13303 8.23288 2.761 12.931 2.761C16.9936 2.761 19.8359 5.40012 19.8359 9.17516C19.8359 13.441 17.5787 16.3921 14.6454 16.3921C13.022 16.3921 11.8129 15.1181 12.1964 13.5417C12.6596 11.6648 13.568 9.64643 13.568 8.29275C13.568 7.07882 12.8822 6.07452 11.4814 6.07452C9.8287 6.07452 8.48801 7.71097 8.48801 9.90807C8.48801 11.304 8.98203 12.2466 8.98203 12.2466C8.98203 12.2466 7.34721 18.8508 7.04332 20.0843C6.5298 22.1725 7.1132 25.5543 7.16358 25.8452C7.19445 26.006 7.37484 26.0564 7.47559 25.9248C7.63647 25.7135 9.61256 22.894 10.1667 20.8562C10.3682 20.1135 11.1954 17.1023 11.1954 17.1023C11.7398 18.0854 13.3112 18.9093 14.9851 18.9093C19.9643 18.9093 23.5622 14.533 23.5622 9.10203C23.5443 3.8953 19.0884 0 13.3535 0Z" fill="#F38181"/>
</svg>
